<svg width="24" height="24" viewBox="0 0 24 24" fill="none" xmlns="http://www.w3.org/2000/svg">
<g id="Social icon" clip-path="url(#clip0_370_764)">
<path id="Vector" d="M24 11.9995C24 5.37209 18.6274 -0.000488281 12 -0.000488281C5.37258 -0.000488281 0 5.37209 0 11.9995C0 17.989 4.3882 22.9535 10.125 23.8537V15.4683H7.07812V11.9995H10.125V9.35576C10.125 6.34826 11.9166 4.68701 14.6576 4.68701C15.9701 4.68701 17.3438 4.92139 17.3438 4.92139V7.87451H15.8306C14.34 7.87451 13.875 8.79959 13.875 9.74951V11.9995H17.2031L16.6711 15.4683H13.875V23.8537C19.6118 22.9535 24 17.989 24 11.9995Z" fill="white"/>
</g>
<defs>
<clipPath id="clip0_370_764">
<rect width="24" height="24" fill="white" transform="translate(0 -0.000488281)"/>
</clipPath>
</defs>
</svg>
