<svg width="80" height="80" viewBox="0 0 80 80" fill="none" xmlns="http://www.w3.org/2000/svg">
<g id="marker (2) 1">
<rect width="80" height="80" rx="13.7634" fill="#333333"/>
<g id="Group 39507">
<path id="Vector" d="M18.8916 48.9909C20.3482 47.672 21.8028 46.3497 23.2615 45.0343C24.5585 43.8654 25.8615 42.7035 27.1615 41.5392C27.2478 41.4619 27.3352 41.3834 27.4285 41.3178C27.5771 41.2124 27.7347 41.1738 27.8893 41.305C28.0449 41.4373 28.061 41.6247 28.0168 41.8203C27.9787 41.989 27.9224 42.153 27.8682 42.3158C27.5239 43.3395 27.1826 44.3643 26.8292 45.3834C26.7298 45.6703 26.7168 45.8308 27.0511 45.805C30.2735 45.5602 33.1426 44.4241 35.328 41.4643C36.2315 40.2414 37.0396 38.9401 37.8497 37.6388C38.718 36.245 39.6075 34.8723 40.6284 33.6249C43.0758 30.6346 46.0694 28.8191 49.5307 28.0156C50.5627 27.7755 51.6017 27.6056 52.6528 27.5354C53.0704 27.5073 53.0995 27.4581 52.9379 26.9814C52.5825 25.9284 52.2241 24.8777 51.8667 23.8259C51.8517 23.7814 51.8346 23.7381 51.8205 23.6936C51.7302 23.4089 51.5987 23.1079 51.8768 22.8713C52.1378 22.6488 52.3385 22.8713 52.5333 23.0435C53.1958 23.6338 53.8554 24.2265 54.5159 24.8203C56.5076 26.6089 58.5003 28.3974 60.492 30.186C61.021 30.6615 61.028 30.8969 60.513 31.3584C57.8709 33.7291 55.2277 36.0974 52.5845 38.4669C52.5092 38.5349 52.4339 38.6063 52.3526 38.6637C52.193 38.7773 52.0253 38.8359 51.8567 38.6848C51.688 38.5325 51.687 38.3194 51.7503 38.1191C51.938 37.5205 52.1388 36.9279 52.3375 36.334C52.5423 35.7261 52.7521 35.1206 52.9559 34.5115C53.0091 34.3534 53.0653 34.1953 52.8114 34.2222C51.1861 34.3932 49.596 34.727 48.0892 35.5036C46.3424 36.4031 44.9832 37.8473 43.8046 39.5597C42.607 41.3003 41.5419 43.1568 40.3564 44.909C37.7383 48.7801 34.3673 51.1707 30.2173 52.0679C29.2917 52.2682 28.3611 52.4415 27.4165 52.4661C27.294 52.4696 27.1725 52.5059 27.0501 52.5118C26.7449 52.5258 26.6867 52.6687 26.8031 52.999C27.1725 54.045 27.5229 55.1003 27.8803 56.1521C27.9004 56.2119 27.9224 56.2693 27.9415 56.329C28.0299 56.5996 28.1423 56.8842 27.8913 57.1138C27.6353 57.348 27.4305 57.1419 27.2338 56.9662C26.5823 56.3852 25.9338 55.8019 25.2843 55.2186C23.1531 53.3024 21.0218 51.385 18.8906 49.4676C18.8906 49.3083 18.8906 49.149 18.8906 48.9897L18.8916 48.9909Z" fill="white"/>
<path id="Vector_2" d="M18.8906 30.5303C21.6924 28.012 24.4942 25.4926 27.298 22.9743C27.4767 22.8139 27.6715 22.6803 27.8913 22.8806C28.1071 23.0774 28.0549 23.3316 27.9726 23.5775C27.5972 24.6891 27.2177 25.7995 26.8423 26.911C26.6525 27.4732 26.6806 27.4966 27.2137 27.5412C30.1771 27.7895 33.011 28.5789 35.597 30.3557C36.8147 31.1932 37.9139 32.2134 38.9148 33.3777C39.0804 33.5697 39.216 33.7279 39.0041 34.0113C37.8999 35.493 36.9542 37.1164 35.9634 38.6988C35.7536 39.0349 35.6211 39.1087 35.3571 38.7503C33.2389 35.8737 30.4692 34.5747 27.296 34.2831C26.7037 34.228 26.7047 34.2339 26.9236 34.8816C27.2689 35.9041 27.6142 36.9266 27.9566 37.9515C28.0429 38.2092 28.1242 38.4844 27.8873 38.6906C27.6675 38.8815 27.4697 38.7328 27.292 38.5735C24.5494 36.1185 21.8109 33.6611 19.0723 31.2014C19.0081 31.1428 18.9509 31.0726 18.8906 31.0082C18.8906 30.8489 18.8906 30.6896 18.8906 30.5303Z" fill="white"/>
<path id="Vector_3" d="M51.7155 56.6548C51.7436 56.5576 51.7827 56.4053 51.8319 56.2577C52.1933 55.1907 52.5426 54.119 52.9261 53.0625C53.0747 52.6537 52.9874 52.5354 52.632 52.5108C51.1041 52.4019 49.5933 52.1559 48.1106 51.6968C45.2696 50.8183 42.8302 49.1422 40.7663 46.7083C40.6076 46.5209 40.5946 46.3815 40.7402 46.1835C41.8635 44.6585 42.8362 43 43.8501 41.3789C44.0288 41.0932 44.1443 41.0791 44.343 41.3508C46.3819 44.1525 49.0442 45.4515 52.1291 45.7185C53.0576 45.7994 53.0586 45.7877 52.7133 44.7663C52.4081 43.8621 52.1009 42.959 51.7978 42.0536C51.7124 41.7971 51.6251 41.5195 51.861 41.3122C52.0979 41.1037 52.3017 41.2817 52.4884 41.4492C55.1858 43.8656 57.8832 46.2819 60.5776 48.703C61.0053 49.0872 60.9932 49.3589 60.5505 49.7571C57.8672 52.1688 55.1818 54.5769 52.4965 56.9851C52.3228 57.1409 52.1451 57.3119 51.9052 57.1526C51.7606 57.0566 51.6984 56.9055 51.7175 56.6548H51.7155Z" fill="white"/>
</g>
</g>
</svg>
