<svg width="24" height="24" viewBox="0 0 24 24" fill="none" xmlns="http://www.w3.org/2000/svg">
<g id="Social icon" clip-path="url(#clip0_370_761)">
<g id="Group">
<path id="Vector" d="M22.2234 -0.000488281H1.77187C0.792187 -0.000488281 0 0.772949 0 1.7292V22.2651C0 23.2214 0.792187 23.9995 1.77187 23.9995H22.2234C23.2031 23.9995 24 23.2214 24 22.2698V1.7292C24 0.772949 23.2031 -0.000488281 22.2234 -0.000488281ZM7.12031 20.4511H3.55781V8.99482H7.12031V20.4511ZM5.33906 7.43389C4.19531 7.43389 3.27188 6.51045 3.27188 5.37139C3.27188 4.23232 4.19531 3.30889 5.33906 3.30889C6.47813 3.30889 7.40156 4.23232 7.40156 5.37139C7.40156 6.50576 6.47813 7.43389 5.33906 7.43389ZM20.4516 20.4511H16.8937V14.8823C16.8937 13.5558 16.8703 11.8448 15.0422 11.8448C13.1906 11.8448 12.9094 13.2933 12.9094 14.7886V20.4511H9.35625V8.99482H12.7687V10.5604H12.8156C13.2891 9.66045 14.4516 8.70889 16.1813 8.70889C19.7859 8.70889 20.4516 11.0808 20.4516 14.1651V20.4511Z" fill="white"/>
</g>
</g>
<defs>
<clipPath id="clip0_370_761">
<rect width="24" height="24" fill="white" transform="translate(0 -0.000488281)"/>
</clipPath>
</defs>
</svg>
