<svg xmlns="http://www.w3.org/2000/svg" width="80" height="80" fill="none" viewBox="0 0 80 80"><g filter="url(#a)"><path fill="#fff" d="M58.698 54.72h-37.44V17.28h37.44z"/><path fill="#5a5a5a" d="M29.92 12h20.113c8.736 0 13.944 5.208 13.944 13.944v20.088c0 8.76-5.208 13.968-13.944 13.968H29.945C21.209 60 16 54.792 16 46.056V25.944C15.977 17.208 21.185 12 29.92 12m3.36 25.272 8.473 8.472c.36.36.816.528 1.272.528a1.78 1.78 0 0 0 1.272-.528 1.81 1.81 0 0 0 0-2.544l-7.2-7.2 7.2-7.2a1.81 1.81 0 0 0 0-2.544 1.81 1.81 0 0 0-2.544 0l-8.472 8.472a1.77 1.77 0 0 0 0 2.544"/></g><defs><filter id="a" width="79.977" height="80" x="0" y="0" color-interpolation-filters="sRGB" filterUnits="userSpaceOnUse"><feFlood flood-opacity="0" result="BackgroundImageFix"/><feColorMatrix in="SourceAlpha" result="hardAlpha" values="0 0 0 0 0 0 0 0 0 0 0 0 0 0 0 0 0 0 127 0"/><feOffset dy="4"/><feGaussianBlur stdDeviation="8"/><feComposite in2="hardAlpha" operator="out"/><feColorMatrix values="0 0 0 0 0 0 0 0 0 0 0 0 0 0 0 0 0 0 0.16 0"/><feBlend in2="BackgroundImageFix" result="effect1_dropShadow_381_201"/><feBlend in="SourceGraphic" in2="effect1_dropShadow_381_201" result="shape"/></filter></defs></svg>