<svg width="80" height="80" viewBox="0 0 80 80" fill="none" xmlns="http://www.w3.org/2000/svg">
<g id="marker (2) 1">
<rect width="80" height="80" rx="8.60215" fill="#222222"/>
<path id="Vector" d="M43.1437 32.1072C43.1437 32.7292 42.9591 33.3372 42.6132 33.8543C42.2673 34.3714 41.7757 34.7745 41.2005 35.0125C40.6253 35.2505 39.9924 35.3128 39.3818 35.1915C38.7712 35.0701 38.2104 34.7706 37.7701 34.3308C37.3299 33.891 37.0301 33.3307 36.9087 32.7207C36.7872 32.1107 36.8495 31.4784 37.0878 30.9038C37.326 30.3292 37.7295 29.8381 38.2471 29.4925C38.7648 29.147 39.3734 28.9625 39.9959 28.9625C40.8308 28.9625 41.6314 29.2939 42.2217 29.8836C42.812 30.4733 43.1437 31.2732 43.1437 32.1072ZM47.7866 39.9013L39.9959 47.5161L32.2178 39.9123C30.6742 38.3749 29.6216 36.4147 29.1935 34.2795C28.7653 32.1444 28.9807 29.9304 29.8124 27.9176C30.6442 25.9048 32.0549 24.1837 33.866 22.9721C35.6771 21.7605 37.8073 21.1128 39.987 21.1111C42.1667 21.1093 44.2979 21.7535 46.111 22.9622C47.9241 24.1709 49.3376 25.8897 50.1726 27.9011C51.0076 29.9126 51.2266 32.1263 50.8019 34.2621C50.3772 36.3979 49.3278 38.3615 47.7866 39.9013ZM46.2914 32.1072C46.2914 30.8633 45.9222 29.6473 45.2304 28.613C44.5387 27.5788 43.5555 26.7726 42.4051 26.2966C41.2548 25.8206 39.9889 25.696 38.7677 25.9387C37.5465 26.1814 36.4248 26.7804 35.5443 27.66C34.6639 28.5396 34.0643 29.6602 33.8214 30.8802C33.5785 32.1002 33.7032 33.3648 34.1797 34.5141C34.6561 35.6633 35.4631 36.6455 36.4983 37.3366C37.5336 38.0277 38.7508 38.3966 39.9959 38.3966C41.6656 38.3966 43.2669 37.7339 44.4475 36.5545C45.6282 35.375 46.2914 33.7753 46.2914 32.1072ZM55.5254 37.7881L53.2668 37.0334C52.5639 38.9464 51.4534 40.6841 50.0121 42.1262L39.9959 51.9187L30.0176 42.1702C28.1234 40.2849 26.8028 37.9019 26.2088 35.2975C25.5599 35.2378 24.9058 35.3144 24.2883 35.5224C23.6709 35.7303 23.1038 36.0651 22.6236 36.505C22.1433 36.9449 21.7605 37.4804 21.4998 38.077C21.239 38.6735 21.106 39.318 21.1094 39.9689V55.3024L33.6737 58.8889L46.2962 55.7442L58.8871 58.8071V42.3007C58.8865 41.2873 58.5592 40.3011 57.9537 39.488C57.3482 38.675 56.4967 38.0799 55.5254 37.7881Z" fill="white"/>
</g>
</svg>
