<svg width="16" height="16" viewBox="0 0 16 16" fill="none" xmlns="http://www.w3.org/2000/svg">
<path id="Vector" d="M8.31359 0.205137L10.5966 5.05692L15.7 5.83512C15.7648 5.84519 15.8256 5.87396 15.8756 5.9182C15.9255 5.96243 15.9627 6.02037 15.9829 6.0855C16.0031 6.15062 16.0054 6.22034 15.9898 6.28681C15.9741 6.35327 15.941 6.41384 15.8941 6.46169L12.202 10.2374L13.0737 15.57C13.0849 15.6374 13.0779 15.7067 13.0533 15.7701C13.0288 15.8336 12.9877 15.8885 12.9348 15.9288C12.8819 15.9691 12.8193 15.9931 12.754 15.998C12.6887 16.003 12.6234 15.9887 12.5655 15.9569L8.00052 13.4397L3.43557 15.9576C3.37769 15.9896 3.31238 16.0039 3.24708 15.9991C3.18178 15.9942 3.11909 15.9703 3.06616 15.93C3.01322 15.8897 2.97214 15.8347 2.94761 15.7713C2.92307 15.7078 2.91605 15.6385 2.92734 15.571L3.79908 10.2374L0.105859 6.46169C0.0590308 6.41384 0.0259117 6.35327 0.0102315 6.28681C-0.00544867 6.22034 -0.00306709 6.15062 0.0171081 6.0855C0.0372832 6.02037 0.0744506 5.96243 0.124425 5.9182C0.174398 5.87396 0.235194 5.84519 0.299965 5.83512L5.40341 5.05692L7.68745 0.205137C7.71593 0.143655 7.76041 0.0918035 7.81578 0.055523C7.87115 0.0192424 7.93517 0 8.00052 0C8.06587 0 8.1299 0.0192424 8.18527 0.055523C8.24063 0.0918035 8.28511 0.143655 8.31359 0.205137Z" fill="#111111"/>
</svg>
